Coordinates
version=1
nRows=29
nColumns=24
inDegrees=yes

Units are S.I. units (second, meters, Newtons, ...)
Angles are in degrees.

endheader
time	pelvis_tilt	pelvis_list	pelvis_rotation	pelvis_tx	pelvis_ty	pelvis_tz	hip_flexion_r	hip_adduction_r	hip_rotation_r	knee_angle_r	ankle_angle_r	subtalar_angle_r	mtp_angle_r	hip_flexion_l	hip_adduction_l	hip_rotation_l	knee_angle_l	ankle_angle_l	subtalar_angle_l	mtp_angle_l	lumbar_extension	lumbar_bending	lumbar_rotation
      3.76500000	    -14.81921798	     -1.65351587	      5.60169108	      1.83056516	     -0.03407792	     -0.46992778	     37.95017828	     -2.40446055	     -6.82067136	     -2.02827376	    -10.02460089	      3.76991793	     12.84558280	     -3.74310675	      0.49728308	     -3.52606185	    -10.01757675	      2.76834393	     17.18529195	     13.83342810	     13.87751228	      1.35543131	     -7.39097731
      3.77000000	    -14.90421181	     -1.69229445	      5.70418976	      1.83732764	     -0.03501171	     -0.46955239	     38.21560821	     -2.43740004	     -7.45376044	     -2.47069711	     -9.75565472	      3.99745120	     12.73455200	     -3.86292741	      0.32211423	     -3.62243216	    -10.32853869	      2.54379796	     17.67802928	     14.10679600	     13.98991091	      1.38242808	     -7.47747205
      3.77500000	    -14.97235846	     -1.70131293	      5.85938107	      1.84414908	     -0.03591656	     -0.46923970	     38.45566766	     -2.53131977	     -7.95453678	     -3.01163019	     -9.55241885	      3.94052928	     12.66736098	     -3.99811765	      0.17649911	     -3.61243546	    -10.64546878	      2.27025849	     18.10875237	     14.29872015	     14.08699679	      1.36350453	     -7.63029891
      3.78000000	    -15.04243341	     -1.70963834	      5.99705751	      1.85102570	     -0.03685689	     -0.46890714	     38.72030122	     -2.61833470	     -8.42933822	     -3.68205586	     -9.37748763	      3.83373080	     12.58827501	     -4.12425484	      0.02588419	     -3.63226940	    -10.97987185	      1.99538612	     18.59082056	     14.53361817	     14.18346044	      1.35341943	     -7.76912103
      3.78500000	    -15.08177140	     -1.69016749	      6.16556948	      1.85799947	     -0.03775332	     -0.46862497	     38.92972429	     -2.74683748	     -8.79302913	     -4.40612271	     -9.23521893	      3.57325751	     12.51744209	     -4.28382780	     -0.09843836	     -3.61405441	    -11.31926329	      1.66335610	     19.03758986	     14.69518475	     14.25668755	      1.30831852	     -7.94272587
      3.79000000	    -15.13150822	     -1.70231636	      6.33222443	      1.86505512	     -0.03866948	     -0.46831768	     39.14259424	     -2.84289782	     -9.12568912	     -5.18366038	     -9.15711818	      3.25421109	     12.39054869	     -4.41261068	     -0.26637473	     -3.62824521	    -11.69105291	      1.33062665	     19.54588572	     14.91354773	     14.34876472	      1.29180277	     -8.12105271
      3.79500000	    -15.18577285	     -1.73747217	      6.44196375	      1.87221049	     -0.03958834	     -0.46790758	     39.34829699	     -2.86994251	     -9.35095784	     -5.98834662	     -9.15862692	      2.85870936	     12.00612589	     -4.53716956	     -0.47273547	     -3.77425268	    -12.05357626	      0.93497901	     20.17349386	     15.35182449	     14.45430200	      1.31795273	     -8.21004511
      3.80000000	    -15.18053575	     -1.73958744	      6.63683331	      1.87927684	     -0.04039681	     -0.46767607	     39.46175409	     -2.98434907	     -9.56563914	     -6.78227640	     -9.27309770	      2.47938834	     11.86825587	     -4.69325504	     -0.63388683	     -3.70100561	    -12.47550386	      0.55053186	     20.58140548	     15.45918676	     14.47571933	      1.29798080	     -8.44533050
      3.80500000	    -15.21838189	     -1.87658388	      6.74581252	      1.88665063	     -0.04122419	     -0.46726208	     39.57287290	     -2.89667861	     -9.69632986	     -7.50936080	     -9.54031124	      1.94596283	     11.46813459	     -4.79175624	     -0.96743165	     -3.93073128	    -12.90710612	      0.11888547	     21.26908692	     15.87898806	     14.59964568	      1.42928796	     -8.59753894
      3.81000000	    -15.20579302	     -1.92075181	      6.94070672	      1.89379444	     -0.04192014	     -0.46695904	     39.61879008	     -2.95164277	     -9.82799276	     -8.22654638	     -9.91585099	      1.57820777	     11.26993696	     -4.90697381	     -1.19560328	     -3.90188406	    -13.39162710	     -0.35283991	     21.76399332	     16.04683860	     14.62018279	      1.44362753	     -8.84765821
      3.81500000	    -15.17874831	     -2.10832343	      6.98442128	      1.90124240	     -0.04254791	     -0.46645105	     39.60318983	     -2.74575619	     -9.81113361	     -8.83791896	    -10.51822847	      1.02323933	     10.89152073	     -5.04975742	     -1.60520139	     -4.27481890	    -13.84266641	     -0.93137852	     22.50813846	     16.59753322	     14.68067149	      1.65792288	     -8.93482930
      3.82000000	    -15.15136298	     -2.30344628	      7.09553391	      1.90857574	     -0.04306002	     -0.46605590	     39.56866574	     -2.58268760	     -9.85058022	     -9.40921642	    -11.25573707	      0.59247336	     10.64784855	     -5.13856287	     -2.01840966	     -4.48398433	    -14.36121060	     -1.54544221	     23.11217253	     17.03684431	     14.72504486	      1.86149403	     -9.12136623
      3.82500000	    -15.16161252	     -2.54548616	      7.24022734	      1.91592733	     -0.04347419	     -0.46571200	     39.54164739	     -2.40307633	     -9.91888966	     -9.91422006	    -12.10494602	      0.24771353	     10.50003116	     -5.13704848	     -2.48056321	     -4.61023686	    -14.95020281	     -2.18115302	     23.68215158	     17.30908821	     14.82238540	      2.09571513	     -9.36490887
      3.83000000	    -15.07511375	     -2.81182299	      7.24964089	      1.92323331	     -0.04373961	     -0.46517673	     39.42574192	     -2.08226151	     -9.78588314	    -10.40115225	    -13.07236516	     -0.24762823	     10.44590469	     -5.23328575	     -2.99540775	     -5.06684683	    -15.53312824	     -2.95562014	     24.36462339	     17.93161129	     14.79718288	      2.41527686	     -9.46912489
      3.83500000	    -15.03174558	     -3.13287149	      7.29752473	      1.93058977	     -0.04389381	     -0.46473064	     39.33546748	     -1.74579946	     -9.70040629	    -10.86557332	    -14.01943706	     -0.65563341	     10.40856491	     -5.23784113	     -3.56385088	     -5.42435011	    -16.16598316	     -3.81080172	     24.95916926	     18.47897474	     14.84007349	      2.77331917	     -9.62684865
      3.84000000	    -15.04918150	     -3.50524228	      7.37643509	      1.93798136	     -0.04397412	     -0.46438525	     39.30831266	     -1.39964948	     -9.67319116	    -11.35016765	    -14.86911198	     -0.95140712	     10.29777620	     -5.12296346	     -4.17519254	     -5.66645090	    -16.88247376	     -4.66528602	     25.46755701	     18.75804497	     14.96936712	      3.17382248	     -9.83585278
      3.84500000	    -14.92499221	     -3.84254478	      7.32766001	      1.94530634	     -0.04384591	     -0.46379894	     39.14730387	     -0.95336366	     -9.34905433	    -11.85997016	    -15.63779209	     -1.47906244	     10.13533201	     -5.16823232	     -4.79069811	     -6.27604741	    -17.55174298	     -5.82876739	     26.06317508	     19.62703214	     14.91345643	      3.59025249	     -9.89200797
      3.85000000	    -14.90274330	     -4.20992770	      7.37967643	      1.95259613	     -0.04369777	     -0.46335083	     39.10787093	     -0.57289950	     -9.19062311	    -12.43407722	    -16.21292006	     -1.88220704	      9.89537329	     -5.00509987	     -5.43713416	     -6.73109112	    -18.37402018	     -6.93361477	     26.67636669	     20.11016050	     14.98160240	      3.99038004	    -10.07532871
      3.85500000	    -14.84360111	     -4.58904070	      7.36057592	      1.95990681	     -0.04344090	     -0.46285719	     39.03507822	     -0.12300264	     -8.90804557	    -13.03524179	    -16.62430927	     -2.35867818	      9.49425387	     -4.86924803	     -6.10477188	     -7.31616066	    -19.20020020	     -8.22678009	     27.20376698	     20.81756549	     15.01015414	      4.43750228	    -10.18284469
      3.86000000	    -14.77145836	     -4.95779171	      7.29813923	      1.96723992	     -0.04306975	     -0.46237390	     38.95153267	      0.34401413	     -8.60097394	    -13.67460093	    -16.81194680	     -2.76487780	      8.82189360	     -4.73781754	     -6.75748055	     -7.93087760	    -20.01328065	     -9.75380085	     27.55420227	     21.74795894	     15.02613535	      4.89991251	    -10.23195258
      3.86500000	    -14.74666102	     -5.28661548	      7.29506570	      1.97444614	     -0.04269304	     -0.46184076	     38.93364446	      0.73137647	     -8.39711547	    -14.35556998	    -16.85136813	     -3.21555186	      8.32569693	     -4.45983886	     -7.40229298	     -8.56289583	    -20.97918808	    -11.27193692	     28.10255825	     22.39910216	     15.07518358	      5.27712732	    -10.33757401
      3.87000000	    -14.71653675	     -5.61797349	      7.26104669	      1.98168788	     -0.04224649	     -0.46130305	     38.89538308	      1.13902892	     -8.20130334	    -15.03037976	    -16.71915633	     -3.60244130	      7.75667601	     -4.16230103	     -8.05975871	     -9.25822968	    -21.95830946	    -13.00940125	     28.51553765	     23.27009987	     15.12859943	      5.67119234	    -10.42589510
      3.87500000	    -14.69359204	     -5.93440411	      7.18977679	      1.98894695	     -0.04175388	     -0.46075879	     38.84914037	      1.55109673	     -8.04164636	    -15.69613901	    -16.42040445	     -3.89465806	      7.13633330	     -3.83728774	     -8.70207529	     -9.98034579	    -22.95002258	    -14.94280572	     28.73795888	     24.26447005	     15.18997803	      6.06959598	    -10.46465380
      3.88000000	    -14.69749515	     -6.19776050	      7.14839820	      1.99600869	     -0.04124337	     -0.46011716	     38.82569981	      1.88786994	     -7.97239885	    -16.34359547	    -16.06617911	     -4.08868592	      6.76253349	     -3.39484923	     -9.32400599	    -10.69140773	    -24.07389492	    -16.91163846	     29.09047216	     25.06802928	     15.24697213	      6.37832578	    -10.50862426
      3.88500000	    -14.70519922	     -6.46781561	      7.06274262	      2.00308004	     -0.04068055	     -0.45949483	     38.76864584	      2.25138256	     -7.91809198	    -16.92780771	    -15.62912728	     -4.13692050	      6.39416299	     -2.92664124	     -9.94886525	    -11.42159798	    -25.20785641	    -19.08121485	     29.13835478	     26.02888360	     15.31155945	      6.72130564	    -10.51128865
      3.89000000	    -14.73599666	     -6.71085974	      6.98057242	      2.01008345	     -0.04013287	     -0.45877952	     38.71538815	      2.58542821	     -7.93124888	    -17.47888726	    -15.11580865	     -4.09669556	      6.19375456	     -2.38208302	    -10.56316942	    -12.09841755	    -26.41857738	    -21.26423442	     29.17027430	     26.81508421	     15.39199858	      7.01608343	    -10.51292399
      3.89500000	    -14.78845834	     -6.94570171	      6.89546139	      2.01693929	     -0.03958803	     -0.45800060	     38.65965501	      2.90520633	     -7.99029257	    -17.96671056	    -14.60547882	     -3.92672272	      6.16248716	     -1.74771345	    -11.18267885	    -12.71076815	    -27.72970408	    -23.40625305	     29.16571343	     27.41797569	     15.47389738	      7.29037290	    -10.51160114
      3.90000000	    -14.85726275	     -7.18922799	      6.79764739	      2.02381427	     -0.03904366	     -0.45720418	     38.58232181	      3.23819047	     -8.09405961	    -18.38871867	    -14.05994218	     -3.69898631	      6.20862381	     -1.06589214	    -11.80127892	    -13.22544963	    -29.07603898	    -25.52435684	     28.96300667	     27.90552405	     15.58422147	      7.57109686	    -10.49474434
      3.90500000	    -14.93035995	     -7.43114688	      6.70720627	      2.03053009	     -0.03846604	     -0.45641399	     38.47612870	      3.56344385	     -8.20368613	    -18.73340801	    -13.55066276	     -3.41650308	      6.28993093	     -0.31634010	    -12.40526833	    -13.60630542	    -30.49869872	    -27.53673892	     28.58585105	     28.25124690	     15.67849544	      7.84540301	    -10.48790168
